<svg id="Layer_1" data-name="Layer 1" xmlns="http://www.w3.org/2000/svg" xmlns:xlink="http://www.w3.org/1999/xlink" viewBox="0 0 1655.39 402.45"><defs><style>.cls-1{fill:none;}.cls-2{fill:#6d2077;}.cls-3{opacity:0.85;}.cls-4{clip-path:url(#clip-path);}.cls-5{opacity:0.7;}.cls-6{clip-path:url(#clip-path-2);}.cls-7{opacity:0.55;}.cls-8{clip-path:url(#clip-path-3);}.cls-9{opacity:0.38;}.cls-10{clip-path:url(#clip-path-4);}</style><clipPath id="clip-path"><rect class="cls-1" x="332.59" y="55.2" width="177.68" height="289.9"/></clipPath><clipPath id="clip-path-2"><rect class="cls-1" x="236.05" y="55.21" width="193.69" height="289.89"/></clipPath><clipPath id="clip-path-3"><rect class="cls-1" x="139.51" y="55.21" width="193.69" height="289.9"/></clipPath><clipPath id="clip-path-4"><rect class="cls-1" x="58.97" y="55.2" width="177.69" height="289.9"/></clipPath></defs><title>M-Logo</title><path class="cls-2" d="M728.3,301.75c-11.79,26.4-40.44,45.5-77.51,45.5-81.43,0-135.35-63.46-135.35-147.15,0-80.87,52.8-144.9,133.11-144.9C698,55.2,721,81.6,727.74,97.33V76.22a13.16,13.16,0,0,1,13.15-13.16H787a13.16,13.16,0,0,1,13.15,13.16V289.4c0,14.39.57,26.86,1.16,36a13.13,13.13,0,0,1-13.12,14H742.61a13.16,13.16,0,0,1-13.08-11.86c-.68-6.64-1.23-14.71-1.23-22.4Zm-68.51-19.09c38.75,0,68-32,68-82.56s-28.64-80.31-68-80.31c-39.88,0-69.09,29.77-69.09,80.31,0,50,28.64,82.56,69.09,82.56"/><path class="cls-2" d="M908.85,339.39h-48.4a13.15,13.15,0,0,1-13.15-13.15v-250a13.16,13.16,0,0,1,13.15-13.16H906.6a13.16,13.16,0,0,1,13.15,13.16V97.33c16.85-28.65,50-41.56,79.75-41.56,68.52,0,100,48.86,100,109.51v161a13.15,13.15,0,0,1-13.15,13.15h-48.4a13.14,13.14,0,0,1-13.14-13.15v-148c0-30.89-15.17-55-51.11-55-32.58,0-51.67,25.27-51.67,57.28v145.8a13.15,13.15,0,0,1-13.15,13.15"/><path class="cls-2" d="M1524.17,309.62c-15.16,25.83-47.18,37.07-76.38,37.07-66.83,0-105-48.86-105-109V76.22a13.16,13.16,0,0,1,13.15-13.16h48.4a13.16,13.16,0,0,1,13.15,13.16V222.57c0,30.88,15.73,55.6,50.55,55.6,33.13,0,52.22-22.46,52.22-54.48V76.22a13.16,13.16,0,0,1,13.15-13.16h48.41a13.15,13.15,0,0,1,13.14,13.16V289.4c0,13.45.67,26,1.45,35.85a13.13,13.13,0,0,1-13.11,14.14H1538a13.13,13.13,0,0,1-13.11-12c-.45-5.52-.76-11.86-.76-17.75"/><g class="cls-3"><g class="cls-4"><path class="cls-2" d="M461.72,345.1a48.56,48.56,0,0,1-44.82-29.85L336.36,122.5A48.56,48.56,0,1,1,426,85.06l80.54,192.75a48.58,48.58,0,0,1-44.79,67.29"/></g></g><g class="cls-5"><g class="cls-6"><path class="cls-2" d="M284.59,345.1a48.58,48.58,0,0,1-43.39-70.32L337.74,82a48.56,48.56,0,0,1,86.84,43.5L328,318.28a48.54,48.54,0,0,1-43.45,26.82"/></g></g><g class="cls-7"><g class="cls-8"><path class="cls-2" d="M284.66,345.1a48.54,48.54,0,0,1-43.45-26.82L144.66,125.53A48.56,48.56,0,1,1,231.5,82l96.55,192.75a48.58,48.58,0,0,1-43.39,70.32"/></g></g><g class="cls-9"><g class="cls-10"><path class="cls-2" d="M107.53,345.1a48.58,48.58,0,0,1-44.79-67.29L143.27,85.06a48.56,48.56,0,1,1,89.62,37.44L152.35,315.25a48.56,48.56,0,0,1-44.82,29.85"/></g></g><path class="cls-2" d="M1311,76.22V122.3a13.15,13.15,0,0,1-13.15,13.15h-48.43V245c0,24.14,11.23,32,32.57,32,9,0,19.09-1.13,23-2.25v52.37a13,13,0,0,1-9.88,12.61c-7.56,1.92-18.16,3.54-32.24,3.54h-2c-53-.59-86.12-32.5-86.12-85.36V135.45H1131.9a13.15,13.15,0,0,1-13.15-13.15V76.22a13.15,13.15,0,0,1,13.15-13.15h166A13.15,13.15,0,0,1,1311,76.22"/></svg>